# AST/ASF file generated using VICON BodyLanguage
# -----------------------------------------------
:version 1.10
:name VICON
:units
  mass 1.0
  length 0.45
  angle deg
:documentation
   .ast/.asf automatically generated from VICON data using
   VICON BodyBuilder and BodyLanguage model FoxedUp or BRILLIANT.MOD
:root
   order TX TY TZ RX RY RZ
   axis XYZ
   position 0 0 0  
   orientation 0 0 0 
:bonedata
  begin
     id 1 
     name lhipjoint
     direction 0.541323 -0.757556 0.364798 
     length 2.47576 
     axis 0 0 0  XYZ
  end
  begin
     id 2 
     name lfemur
     direction 0.34202 -0.939693 0  
     length 7.46493  
     axis 0 0 20  XYZ
    dof rx ry rz
    limits (-160.0 20.0)
           (-70.0 70.0)
           (-60.0 70.0)
  end
  begin
     id 3 
     name ltibia
     direction 0.34202 -0.939693 0   
     length 7.73805   
     axis 0 0 20   XYZ
    dof rx
    limits (-10.0 170.0)
  end
  begin
     id 4 
     name lfoot
     direction 0.107174 -0.294458 0.949636   
     length 2.25864   
     axis -90 7.62852e-016 20   XYZ
    dof rx rz
    limits (-45.0 90.0)
           (-70.0 20.0)
  end
  begin
     id 5 
     name ltoes
     direction 1.53606e-011 -4.21934e-011 1   
     length 1.12451   
     axis -90 7.62852e-016 20   XYZ
    dof rx
    limits (-90.0 20.0)
  end
  begin
     id 6 
     name rhipjoint
     direction -0.524745 -0.766967 0.36933   
     length 2.44538  
     axis 0 0 0  XYZ 
  end
  begin
     id 7 
     name rfemur
     direction -0.34202 -0.939693 0   
     length 7.61604   
     axis 0 0 -20   XYZ
    dof rx ry rz
    limits (-160.0 20.0)
           (-70.0 70.0)
           (-70.0 60.0)
  end
  begin
     id 8 
     name rtibia
     direction -0.34202 -0.939693 0   
     length 7.61056   
     axis 0 0 -20   XYZ
    dof rx
    limits (-10.0 170.0)
 end
 begin
     id 9 
     name rfoot
     direction -0.12616 -0.346623 0.929482   
     length 2.46372  
     axis -90 -7.62852e-016 -20   XYZ
    dof rx rz
    limits (-45.0 90.0)
           (-20.0 70.0)
  end
  begin
     id 10 
     name rtoes
     direction -1.53531e-011 -4.22004e-011 1   
     length 1.21611   
     axis -90 -7.62852e-016 -20   XYZ
    dof rx
    limits (-90.0 20.0)
  end
  begin
     id 11 
     name lowerback
     direction -0.000778023 0.997293 -0.0735223   
     length 2.06139   
     axis 0 0 0   XYZ
    dof rx ry rz
    limits (-20.0 45.0)
           (-30.0 30.0)
           (-30.0 30.0)
  end
  begin
     id 12 
     name upperback
     direction 0.0222598 0.999722 -0.0078355   
     length 2.06383   
     axis 0 0 0   XYZ
    dof rx ry rz
    limits (-20.0 45.0)
           (-30.0 30.0)
           (-30.0 30.0)
  end
  begin
     id 13 
     name thorax
     direction 0.0219654 0.999405 0.0265994   
     length 2.07163   
     axis 0 0 0   XYZ
    dof rx ry rz
    limits (-20.0 45.0)
           (-30.0 30.0)
           (-30.0 30.0)
  end
  begin
     id 14 
     name lowerneck
     direction 0.0213282 0.988147 0.15202   
     length 1.75969   
     axis 0 0 0   XYZ
    dof rx ry rz
    limits (-20.0 45.0)
           (-30.0 30.0)
           (-30.0 30.0)
  end
  begin
     id 15 
     name upperneck
     direction -0.0546456 0.982624 -0.177379   
     length 1.79244   
     axis 0 0 0   XYZ
    dof rx ry rz
    limits (-20.0 45.0)
           (-30.0 30.0)
           (-30.0 30.0)
  end
  begin
     id 16
     name head
     direction -0.0199987 0.996855 -0.076686  
     length 1.80555  
     axis 0 0 0   XYZ
    dof rx ry rz
    limits (-20.0 45.0)
           (-30.0 30.0)
           (-30.0 30.0)
  end
  begin
     id 17 
     name lclavicle
     direction 0.929565 0.363219 -0.063096  
     length 3.55722  
     axis 0 0 0   XYZ
    dof ry rz
    limits (-20.0 10.0)
           (0.0 20.0)
  end
  begin
     id 18 
     name lhumerus
     direction 1 -4.48993e-011 -2.36203e-027   
     length 4.92785   
     axis 180 -30 -90   XYZ
    dof rx ry rz
    limits (-60.0 90.0)
           (-90.0 90.0)
           (-90.0 90.0)
  end
  begin
     id 19
     name lradius
     direction 1 -4.48947e-011 2.02997e-027   
     length 3.44052   
     axis 180 -30 -90   XYZ
    dof rx
    limits (-10.0 170.0)
  end
  begin
     id 20
     name lwrist
     direction 1 -4.48962e-011 1.45991e-027   
     length 1.72026   
     axis 1.49639e-024 90 90   XYZ
    dof ry
    limits (-180.0 0.0)
 end
  begin
     id 21 
     name lhand
     direction 1 -4.48984e-011 2.91906e-027   
     length 0.654326   
     axis -1.863e-015 90 90   XYZ
    dof rx rz
    limits (-90.0 90.0)
           (-45.0 45.0)
  end
  begin
     id 22 
     name lfingers
     direction 1 -4.48961e-011 5.83968e-027   
     length 0.527534   
     axis -3.72598e-015 90 90   XYZ
    dof rx
    limits (0.0 90.0)
  end
  begin
     id 23
     name lthumb
     direction 0.707107 -6.34963e-011 0.707107   
     length 0.757437   
     axis -90 45 -6.68868e-015   XYZ
    dof rx rz
    limits (-45.0 45.0)
           (-45.0 45.0)
  end
  begin
     id 24 
     name rclavicle
     direction -0.902944 0.422599 -0.0781198   
     length 3.54432  
     axis 0 0 0   XYZ 
    dof ry rz
    limits (-10.0 20.0)
           (-20.0 0.0)
  end
  begin
     id 25 
     name rhumerus
     direction -1 -4.48953e-011 -4.75835e-028  
     length 5.09181   
     axis 180 30 90   XYZ
    dof rx ry rz
    limits (-90.0 60.0)
           (-90.0 90.0)
           (-90.0 90.0)
  end
  begin
     id 26 
     name rradius
     direction -1 -4.48986e-011 -3.25889e-027   
     length 3.49865   
     axis 180 30 90   XYZ
    dof rx
    limits (-10.0 170.0)
  end
  begin
     id 27 
     name rwrist
     direction -1 -4.48963e-011 1.45989e-027   
     length 1.74933   
     axis 1.49639e-024 -90 -90   XYZ
    dof ry
    limits (-180.0 0.0)
  end
  begin
     id 28
     name rhand
     direction -1 -4.49003e-011 2.91844e-027   
     length 0.66641   
     axis -1.863e-015 -90 -90   XYZ
    dof rx rz
    limits (-90.0 90.0)
           (-45.0 45.0)
  end
  begin
     id 29
     name rfingers
     direction -1 -4.48973e-011 5.83886e-027   
     length 0.537277   
     axis -3.72598e-015 -90 -90   XYZ
    dof rx
    limits (0.0 90.0)
  end
  begin
     id 30
     name rthumb
     direction -0.707107 -6.34976e-011 0.707107   
     length 0.771425   
     axis -90 -45 6.68868e-015   XYZ
    dof rx rz
    limits (-45.0 45.0)
           (-45.0 45.0)
  end
:hierarchy
  begin
    root lhipjoint rhipjoint lowerback
    lhipjoint lfemur
    lfemur ltibia
    ltibia lfoot
    lfoot ltoes
    rhipjoint rfemur
    rfemur rtibia
    rtibia rfoot
    rfoot rtoes
    lowerback upperback
    upperback thorax
    thorax lowerneck lclavicle rclavicle
    lowerneck upperneck
    upperneck head
    lclavicle lhumerus
    lhumerus lradius
    lradius lwrist
    lwrist lhand lthumb
    lhand lfingers
    rclavicle rhumerus
    rhumerus rradius
    rradius rwrist
    rwrist rhand rthumb
    rhand rfingers
  end

#!OML:ASF H:\LiuWeirdWalks\Patient Classification 1\Patient 1\Session 1\male.ASF
:FULLY-SPECIFIED
:DEGREES
1
root -0.274044 17.9847 -22.9416 0.72458 47.5719 -0.906672
lowerback 5.15499 9.38942 5.40518
upperback -1.08397 12.8825 0.277937
thorax -2.86169 6.32145 -3.49027
lowerneck 4.5897 20.2511 17.7162
upperneck 11.003 29.4856 -12.2583
head 7.03699 14.8263 -3.93188
rclavicle 7.67495e-015 1.31198e-014
rhumerus -37.0138 -19.8429 -67.693
rradius 24.1594
rwrist -5.39671
rhand -16.1473 -1.56492
rfingers 7.12502
rthumb 10.058 -31.3046
lclavicle 7.67495e-015 1.31198e-014
lhumerus -34.4199 0.847785 79.0805
lradius 32.6109
lwrist 8.58025
lhand -10.3114 1.15063
lfingers 7.12502
lthumb 15.6838 30.535
rfemur 2.30597 -15.8796 21.8129
rtibia 21.8831
rfoot -19.7825 -43.1092
rtoes 3.40573
lfemur -15.4038 -15.8353 -13.5975
ltibia 26.188
lfoot -11.7375 -10.0826
ltoes -11.2342
2
root -0.273451 17.9855 -22.9403 0.745446 47.4877 -0.902165
lowerback 5.16077 9.42088 5.37798
upperback -1.0947 12.9218 0.230933
thorax -2.86744 6.34087 -3.52656
lowerneck 4.57268 20.1748 17.8934
upperneck 11.0881 29.4119 -12.3598
head 7.09868 14.7911 -3.98067
rclavicle 7.43237e-014 -2.38542e-015
rhumerus -37.0697 -20.0665 -67.6791
rradius 24.1824
rwrist -5.44286
rhand -16.1498 -1.52963
rfingers 7.12502
rthumb 10.0556 -31.2694
lclavicle 7.43237e-014 -2.38542e-015
lhumerus -34.3433 0.771517 79.0813
lradius 32.3918
lwrist 8.5087
lhand -9.99622 1.02945
lfingers 7.12502
lthumb 15.9873 30.3897
rfemur 2.29997 -15.8197 21.8171
rtibia 21.8659
rfoot -19.8376 -43.0679
rtoes 3.37566
lfemur -15.3961 -15.7831 -13.5956
ltibia 26.1838
lfoot -11.7519 -10.0302
ltoes -11.1184
3
root -0.271344 17.9854 -22.9378 0.70656 47.3938 -0.945684
lowerback 5.18683 9.477 5.39412
upperback -1.11862 12.9981 0.170744
thorax -2.88238 6.37722 -3.60376
lowerneck 4.48685 20.1298 18.0962
upperneck 10.9689 29.3079 -12.338
head 7.08373 14.7416 -4.00483
rclavicle 5.67701e-014 -1.98785e-015
rhumerus -37.2144 -20.4519 -67.6332
rradius 24.2368
rwrist -5.56452
rhand -16.3428 -1.40008
rfingers 7.12502
rthumb 9.86949 -31.1488
lclavicle 5.67701e-014 -1.98785e-015
lhumerus -34.3301 0.485767 79.1035
lradius 32.2629
lwrist 8.58772
lhand -10.0355 1.11495
lfingers 7.12502
lthumb 15.9495 30.4783
rfemur 2.33053 -15.7747 21.8418
rtibia 21.8439
rfoot -19.8321 -43.0329
rtoes 3.39054
lfemur -15.3519 -15.7377 -13.5672
ltibia 26.184
lfoot -11.7764 -9.96503
ltoes -11.2303
4
root -0.269844 17.9864 -22.9379 0.705301 47.3217 -0.981514
lowerback 5.21899 9.47699 5.4362
upperback -1.13109 13.0021 0.136902
thorax -2.89587 6.37746 -3.66559
lowerneck 4.4705 20.1398 18.1102
upperneck 10.8779 29.3079 -12.3664
head 7.06318 14.7398 -4.0157
rclavicle -7.48673e-014 5.1684e-015
rhumerus -37.2095 -20.5246 -67.704
rradius 24.2173
rwrist -5.57508
rhand -16.4094 -1.24368
rfingers 7.12502
rthumb 9.80515 -30.9954
lclavicle -7.48673e-014 5.1684e-015
lhumerus -34.2578 0.609925 79.0626
lradius 31.9861
lwrist 8.20486
lhand -9.8981 1.01755
lfingers 7.12502
lthumb 16.0818 30.3702
rfemur 2.30366 -15.7404 21.8649
rtibia 21.8262
rfoot -19.7188 -43.0004
rtoes 3.34237
lfemur -15.3604 -15.7144 -13.5386
ltibia 26.1824
lfoot -11.7785 -9.90491
ltoes -11.0465
5
root -0.268327 17.987 -22.9371 0.702345 47.2433 -1.00585
lowerback 5.2432 9.49296 5.45015
upperback -1.14606 13.0253 0.10403
thorax -2.91203 6.38762 -3.7119
lowerneck 4.46175 20.1263 18.1645
upperneck 10.7879 29.2754 -12.3874
head 7.04155 14.7242 -4.03456
rclavicle -1.37978e-013 -2.78299e-015
rhumerus -37.2534 -20.6864 -67.7226
rradius 24.2253
rwrist -5.60696
rhand -16.3991 -1.18837
rfingers 7.12502
rthumb 9.8151 -30.9396
lclavicle -1.37978e-013 -2.78299e-015
lhumerus -34.2293 0.598323 79.0601
lradius 31.7827
lwrist 8.01656
lhand -9.80138 0.979558
lfingers 7.12502
lthumb 16.1749 30.3247
rfemur 2.29779 -15.7019 21.88
rtibia 21.8078
rfoot -19.6808 -42.9661
rtoes 3.31921
lfemur -15.3522 -15.6903 -13.5196
ltibia 26.1829
lfoot -11.7885 -9.8352
ltoes -10.9135
6
root -0.266812 17.9875 -22.9364 0.699498 47.1696 -1.02956
lowerback 5.26524 9.50429 5.46055
upperback -1.1584 13.0422 0.0803725
thorax -2.92774 6.39481 -3.74648
lowerneck 4.46308 20.1215 18.1784
upperneck 10.6882 29.254 -12.4017
head 7.0099 14.7137 -4.048
rclavicle -5.33721e-014 -6.36111e-015
rhumerus -37.2891 -20.8241 -67.7437
rradius 24.2364
rwrist -5.63992
rhand -16.3073 -1.191
rfingers 7.12502
rthumb 9.90367 -30.938
lclavicle -5.33721e-014 -6.36111e-015
lhumerus -34.2097 0.627087 79.0618
lradius 31.5844
lwrist 7.81001
lhand -9.70685 0.951779
lfingers 7.12502
lthumb 16.2659 30.2895
rfemur 2.28807 -15.6655 21.8945
rtibia 21.7971
rfoot -19.6478 -42.9371
rtoes 3.29515
lfemur -15.3438 -15.6692 -13.5015
ltibia 26.1809
lfoot -11.7963 -9.76606
ltoes -10.7766
7
root -0.26531 17.988 -22.9357 0.701764 47.1043 -1.04641
lowerback 5.28221 9.50848 5.46207
upperback -1.16871 13.0488 0.0640596
thorax -2.94312 6.39717 -3.76796
lowerneck 4.47566 20.1233 18.1591
upperneck 10.5965 29.2452 -12.4154
head 6.97613 14.7092 -4.05732
rclavicle 1.24813e-013 2.38542e-015
rhumerus -37.314 -20.9363 -67.7695
rradius 24.2479
rwrist -5.66595
rhand -16.1605 -1.23843
rfingers 7.12502
rthumb 10.0453 -30.9787
lclavicle 1.24813e-013 2.38542e-015
lhumerus -34.2005 0.696308 79.067
lradius 31.3959
lwrist 7.60399
lhand -9.60665 0.935817
lfingers 7.12502
lthumb 16.3624 30.2656
rfemur 2.27801 -15.634 21.9039
rtibia 21.7877
rfoot -19.6191 -42.9126
rtoes 3.2646
lfemur -15.3375 -15.6467 -13.4888
ltibia 26.1794
lfoot -11.8041 -9.70638
ltoes -10.6474
8
root -0.263723 17.9885 -22.9348 0.706661 47.0455 -1.05724
lowerback 5.29044 9.50736 5.45168
upperback -1.1755 13.0471 0.055212
thorax -2.95508 6.39588 -3.77387
lowerneck 4.47802 20.124 18.1382
upperneck 10.547 29.2412 -12.4323
head 6.95871 14.7063 -4.06346
rclavicle -7.90946e-015 -3.97569e-016
rhumerus -37.3291 -21.0276 -67.8001
rradius 24.2652
rwrist -5.70625
rhand -15.961 -1.32248
rfingers 7.12502
rthumb 10.2378 -31.0533
lclavicle -7.90946e-015 -3.97569e-016
lhumerus -34.2165 0.752789 79.0841
lradius 31.2448
lwrist 7.46698
lhand -9.49009 0.941003
lfingers 7.12502
lthumb 16.4746 30.2615
rfemur 2.2719 -15.6069 21.9086
rtibia 21.7788
rfoot -19.6016 -42.8893
rtoes 3.23982
lfemur -15.329 -15.63 -13.4814
ltibia 26.1783
lfoot -11.8128 -9.64559
ltoes -10.569
9
root -0.262028 17.9891 -22.9338 0.718024 46.9964 -1.05886
lowerback 5.29061 9.50178 5.43053
upperback -1.17989 13.0383 0.0493599
thorax -2.9638 6.39143 -3.76946
lowerneck 4.46236 20.1223 18.121
upperneck 10.5343 29.2366 -12.4478
head 6.95635 14.7023 -4.06586
rclavicle 8.09069e-014 -3.97569e-016
rhumerus -37.3382 -21.1031 -67.8374
rradius 24.2876
rwrist -5.75068
rhand -15.777 -1.40205
rfingers 7.12502
rthumb 10.4153 -31.1241
lclavicle 8.09069e-014 -3.97569e-016
lhumerus -34.2483 0.79234 79.1151
lradius 31.1236
lwrist 7.39542
lhand -9.37975 0.96721
lfingers 7.12502
lthumb 16.5809 30.2789
rfemur 2.26666 -15.5868 21.906
rtibia 21.7712
rfoot -19.5801 -42.8688
rtoes 3.21334
lfemur -15.3211 -15.6044 -13.4821
ltibia 26.1765
lfoot -11.8218 -9.60299
ltoes -10.5288
10
root -0.260138 17.9897 -22.9326 0.733392 46.955 -1.0542
lowerback 5.28058 9.48215 5.39917
upperback -1.17769 13.0096 0.0541
thorax -2.96652 6.37769 -3.74624
lowerneck 4.42611 20.1314 18.0858
upperneck 10.5624 29.2488 -12.4557
head 6.96923 14.705 -4.05752
rclavicle 6.79129e-015 -3.97569e-016
rhumerus -37.321 -21.1284 -67.8941
rradius 24.3069
rwrist -5.78925
rhand -15.6323 -1.44537
rfingers 7.12502
rthumb 10.5548 -31.1603
lclavicle 6.79129e-015 -3.97569e-016
lhumerus -34.3038 0.848595 79.1497
lradius 31.0316
lwrist 7.36748
lhand -9.2725 1.00435
lfingers 7.12502
lthumb 16.6841 30.3073
rfemur 2.26347 -15.5749 21.897
rtibia 21.7637
rfoot -19.5542 -42.8484
rtoes 3.18038
lfemur -15.3127 -15.5733 -13.4891
ltibia 26.174
lfoot -11.8299 -9.57313
ltoes -10.5504
11
root -0.258009 17.9905 -22.9315 0.762209 46.9216 -1.03474
lowerback 5.26634 9.45828 5.36086
upperback -1.17236 12.9743 0.0588835
thorax -2.96574 6.36105 -3.71816
lowerneck 4.37218 20.1434 18.0449
upperneck 10.6029 29.2628 -12.4578
head 6.98744 14.7077 -4.04419
rclavicle 5.40135e-015 1.23246e-014
rhumerus -37.2967 -21.1369 -67.96
rradius 24.3302
rwrist -5.82532
rhand -15.5448 -1.45014
rfingers 7.12502
rthumb 10.6393 -31.1608
lclavicle 5.40135e-015 1.23246e-014
lhumerus -34.368 0.891423 79.1964
lradius 30.9621
lwrist 7.37453
lhand -9.18404 1.05507
lfingers 7.12502
lthumb 16.7693 30.3509
rfemur 2.25825 -15.5742 21.875
rtibia 21.7577
rfoot -19.5301 -42.8209
rtoes 3.15133
lfemur -15.3073 -15.5472 -13.5084
ltibia 26.17
lfoot -11.8347 -9.54533
ltoes -10.5738
12
root -0.25581 17.9912 -22.9302 0.792904 46.8926 -1.01177
lowerback 5.25481 9.43052 5.32295
upperback -1.16505 12.9341 0.0655259
thorax -2.96513 6.34194 -3.68856
lowerneck 4.31694 20.1658 17.979
upperneck 10.6253 29.2852 -12.4461
head 6.9954 14.714 -4.02432
rclavicle -1.14711e-013 -1.70955e-014
rhumerus -37.2663 -21.1295 -68.0373
rradius 24.3531
rwrist -5.84736
rhand -15.5278 -1.4189
rfingers 7.12502
rthumb 10.6557 -31.1287
lclavicle -1.14711e-013 -1.70955e-014
lhumerus -34.4396 0.935576 79.2453
lradius 30.9047
lwrist 7.38503
lhand -9.10976 1.09983
lfingers 7.12502
lthumb 16.8408 30.3896
rfemur 2.25323 -15.5742 21.8506
rtibia 21.7537
rfoot -19.5037 -42.7968
rtoes 3.11593
lfemur -15.3012 -15.5231 -13.5309
ltibia 26.165
lfoot -11.836 -9.52103
ltoes -10.5973
13
root -0.253617 17.9919 -22.929 0.82789 46.8682 -0.984303
lowerback 5.24756 9.40543 5.28646
upperback -1.15956 12.8977 0.0684705
thorax -2.96723 6.32456 -3.66443
lowerneck 4.3023 20.1898 17.9131
upperneck 10.5721 29.3068 -12.4495
head 6.97458 14.7218 -4.01674
rclavicle 1.21827e-013 1.15295e-014
rhumerus -37.2367 -21.118 -68.1205
rradius 24.378
rwrist -5.88744
rhand -15.555 -1.3821
rfingers 7.12502
rthumb 10.6294 -31.0933
lclavicle 1.21827e-013 1.15295e-014
lhumerus -34.5039 0.994173 79.2901
lradius 30.8354
lwrist 7.3317
lhand -9.05355 1.11987
lfingers 7.12502
lthumb 16.8949 30.405
rfemur 2.24598 -15.5771 21.823
rtibia 21.7522
rfoot -19.4841 -42.7729
rtoes 3.07964
lfemur -15.297 -15.5105 -13.5563
ltibia 26.159
lfoot -11.8335 -9.4906
ltoes -10.6205
14
root -0.251612 17.9925 -22.9278 0.856644 46.8472 -0.960751
lowerback 5.24699 9.38442 5.25326
upperback -1.15309 12.8673 0.0701087
thorax -2.97041 6.31003 -3.64453
lowerneck 4.32886 20.2134 17.8535
upperneck 10.449 29.3272 -12.4745
head 6.92879 14.731 -4.02368
rclavicle -3.34983e-014 -5.56597e-015
rhumerus -37.205 -21.1099 -68.2067
rradius 24.4095
rwrist -5.95998
rhand -15.5914 -1.36142
rfingers 7.12502
rthumb 10.5943 -31.0744
lclavicle -3.34983e-014 -5.56597e-015
lhumerus -34.5571 1.05907 79.3352
lradius 30.7586
lwrist 7.22732
lhand -9.0081 1.12628
lfingers 7.12502
lthumb 16.9386 30.4076
rfemur 2.24187 -15.5765 21.7999
rtibia 21.751
rfoot -19.4729 -42.7537
rtoes 3.04723
lfemur -15.2909 -15.5095 -13.5783
ltibia 26.1535
lfoot -11.8298 -9.4524
ltoes -10.6545
